<svg xmlns="http://www.w3.org/2000/svg" width="351" height="302" viewBox="0 0 351 302" fill="none"><path d="M313.91 86.7147L167.248 1.25041C162.683 -1.41901 156.437 0.217084 154.542 5.8573C154.542 5.8573 160.701 0.303194 164.449 2.45595L311.067 87.8772C314.254 89.7286 316.192 93.1299 316.192 96.7896L279.452 229.012C278.461 230.906 277.126 231.767 275.532 231.638C278.332 232.887 281.175 231.251 282.208 228.151L318.992 95.4549C318.992 91.8814 317.054 88.5231 313.91 86.7147Z" fill="black"></path><path d="M275.532 231.423L121.678 141.826C119.481 140.534 115.863 140.577 113.537 141.826L4.09021 202.792C1.7643 204.083 1.67816 206.15 3.87484 207.442L157.729 297.039C159.926 298.331 163.544 298.288 165.87 297.039L275.317 236.073C277.642 234.782 277.729 232.715 275.532 231.423Z" fill="white"></path><path d="M161.735 298.202C160.227 298.202 158.72 297.857 157.6 297.211L3.74545 207.657C2.62557 207.011 2.02256 206.15 2.06563 205.203C2.06563 204.212 2.75479 203.308 3.96082 202.619L113.408 141.653C115.777 140.319 119.524 140.319 121.764 141.653L275.661 231.208C276.781 231.854 277.384 232.715 277.341 233.662C277.341 234.652 276.652 235.556 275.446 236.245L165.999 297.211C164.793 297.9 163.242 298.202 161.735 298.202ZM117.672 141.094C116.25 141.094 114.786 141.395 113.666 142.041L4.21925 203.007C3.14244 203.61 2.53943 204.385 2.53943 205.203C2.53943 205.978 3.0563 206.667 4.00389 207.226L157.858 296.824C159.969 298.072 163.501 298.072 165.74 296.824L275.187 235.858C276.264 235.255 276.867 234.48 276.867 233.662C276.867 232.887 276.35 232.198 275.403 231.638L121.548 142.041C120.514 141.395 119.093 141.094 117.672 141.094Z" fill="black"></path><path d="M137.399 241.24L101.218 220.143C98.5047 218.55 94.0252 218.593 91.1393 220.143L61.8501 236.46C59.0074 238.053 58.8782 240.594 61.5917 242.187L97.7725 263.284C100.486 264.877 104.966 264.834 107.851 263.284L137.141 246.966C139.983 245.373 140.069 242.79 137.399 241.24Z" fill="black"></path><path d="M137.399 242.402L101.218 221.305C98.5047 219.712 94.0252 219.755 91.1393 221.305L61.8501 237.623C59.0074 239.216 58.8782 241.756 61.5917 243.349L97.7725 264.446C100.486 266.039 104.966 265.996 107.851 264.446L137.141 248.128C139.983 246.535 140.069 243.952 137.399 242.402Z" fill="white"></path><path d="M102.726 265.867C100.874 265.867 99.0218 265.479 97.6435 264.661L61.4627 243.564C60.1275 242.789 59.3522 241.713 59.3953 240.593C59.3953 239.388 60.2567 238.268 61.7212 237.45L91.0103 221.132C93.9392 219.496 98.548 219.496 101.305 221.132L137.485 242.229C138.821 243.004 139.553 244.081 139.553 245.2C139.553 246.406 138.691 247.525 137.227 248.343L107.938 264.661C106.473 265.479 104.578 265.867 102.726 265.867ZM96.2221 220.357C94.413 220.357 92.604 220.745 91.2257 221.52L61.9365 237.838C60.6013 238.57 59.8691 239.56 59.826 240.593C59.826 241.54 60.4721 242.488 61.6781 243.177L97.8588 264.274C100.486 265.824 104.923 265.78 107.679 264.274L136.968 247.956C138.304 247.224 139.036 246.233 139.079 245.2C139.079 244.253 138.433 243.306 137.227 242.617L101.046 221.52C99.754 220.745 97.988 220.357 96.2221 220.357Z" fill="black"></path><path d="M275.317 236.074L165.87 297.04C163.544 298.331 160.055 298.417 157.729 297.04C157.729 297.04 3.22874 207.011 3.14259 206.882C2.9703 206.71 2.84109 206.538 2.71187 206.409C2.71187 206.366 2.6688 206.366 2.6688 206.323C2.58265 206.15 2.45344 205.978 2.32422 205.203V208.777C2.32422 208.777 2.32422 210.37 3.96097 211.403C4.04711 211.446 157.471 300.872 157.471 300.872C159.797 302.249 163.242 302.163 165.611 300.872L275.058 239.906C276.221 239.26 276.824 238.399 276.867 237.581L277.126 233.749C277.082 234.567 276.479 235.428 275.317 236.074Z" fill="black"></path><path d="M152.991 193.148C152.905 193.105 152.862 193.062 152.819 193.018C152.775 192.975 152.775 192.975 152.732 192.932C152.732 192.932 152.732 192.932 152.732 192.889L152.689 192.846C152.689 192.803 152.646 192.803 152.646 192.76C152.646 192.717 152.646 192.717 152.646 192.674C152.646 192.631 152.646 192.631 152.646 192.588L152.689 191.124L152.129 191.468C152.043 191.512 152 191.555 151.914 191.555C151.871 191.598 151.785 191.598 151.742 191.598C151.699 191.598 151.699 191.598 151.656 191.598H151.613C151.569 191.598 151.526 191.598 151.483 191.641C151.44 191.641 151.397 191.641 151.354 191.641C151.311 191.641 151.268 191.641 151.225 191.641H151.182H151.096C151.053 191.641 151.01 191.641 150.923 191.641C150.88 191.641 150.794 191.641 150.751 191.641C150.708 191.641 150.708 191.641 150.665 191.598C150.665 191.598 150.665 191.598 150.622 191.598C150.579 191.598 150.536 191.598 150.493 191.555C150.363 191.512 150.277 191.468 150.191 191.425L144.678 188.196L144.635 189.488C144.635 189.703 144.463 189.919 144.161 190.091L139.337 192.76C139.38 192.846 139.466 192.932 139.595 192.975L146.487 196.98C146.616 197.066 146.788 197.109 146.918 197.152C146.961 197.152 146.961 197.152 147.004 197.152C147.176 197.195 147.348 197.195 147.521 197.195C147.693 197.195 147.865 197.195 148.038 197.152C148.21 197.109 148.382 197.066 148.511 196.98L154.068 193.88C154.154 193.837 154.197 193.793 154.24 193.75L152.991 193.148Z" fill="black"></path><path d="M149.243 200.682C149.157 200.639 149.114 200.596 149.071 200.553C149.028 200.509 149.028 200.509 148.985 200.466C148.985 200.466 148.985 200.466 148.985 200.423C148.985 200.423 148.985 200.38 148.942 200.38C148.942 200.337 148.899 200.337 148.899 200.294C148.899 200.251 148.899 200.251 148.899 200.208C148.899 200.165 148.899 200.165 148.899 200.122L148.942 198.658L148.382 198.959C148.339 199.003 148.252 199.046 148.166 199.046C148.123 199.089 148.037 199.089 147.994 199.089C147.951 199.089 147.951 199.089 147.908 199.089H147.865C147.822 199.089 147.779 199.089 147.736 199.089C147.693 199.089 147.649 199.089 147.606 199.089C147.563 199.089 147.52 199.089 147.477 199.089H147.434H147.348C147.305 199.089 147.219 199.089 147.176 199.089C147.09 199.089 147.046 199.089 147.003 199.046C146.96 199.046 146.96 199.046 146.917 199.046C146.874 199.046 146.874 199.046 146.831 199.046C146.788 199.046 146.745 199.046 146.702 199.003C146.616 198.959 146.487 198.916 146.4 198.873L142.782 196.764L142.739 198.055C142.739 198.271 142.567 198.486 142.308 198.658L137.484 201.327C137.527 201.414 137.614 201.5 137.743 201.543L144.634 205.547C144.764 205.633 144.893 205.676 145.065 205.719C145.108 205.719 145.108 205.719 145.151 205.719C145.324 205.762 145.496 205.762 145.668 205.762C145.84 205.762 146.013 205.762 146.185 205.719C146.357 205.676 146.53 205.633 146.659 205.547L152.215 202.447C152.301 202.404 152.301 202.361 152.344 202.318L149.243 200.682Z" fill="black"></path><path d="M224.146 252.982L209.114 244.242C208.554 243.94 207.65 243.94 207.047 244.242L201.49 247.342C200.931 247.643 200.887 248.203 201.447 248.504L216.48 257.244C217.04 257.546 217.944 257.546 218.547 257.244L224.103 254.144C224.663 253.843 224.663 253.326 224.146 252.982Z" fill="black"></path><path d="M120.342 153.838L113.45 149.834C112.89 149.49 111.986 149.533 111.426 149.834L105.869 152.934C105.309 153.236 105.266 153.795 105.826 154.097L112.718 158.101C113.278 158.402 114.182 158.402 114.785 158.101L120.299 155.001C120.902 154.699 120.902 154.14 120.342 153.838Z" fill="black"></path><path d="M129.99 159.436L123.099 155.432C122.539 155.131 121.634 155.131 121.074 155.432L115.518 158.532C114.958 158.877 114.915 159.393 115.475 159.695L122.366 163.699C122.926 164 123.831 164 124.434 163.699L129.99 160.599C130.507 160.297 130.55 159.781 129.99 159.436Z" fill="black"></path><path d="M139.853 165.162L132.962 161.158C132.402 160.856 131.497 160.856 130.894 161.158L125.381 164.258C124.778 164.602 124.778 165.119 125.338 165.42L132.23 169.424C132.79 169.769 133.694 169.769 134.297 169.424L139.853 166.324C140.37 166.023 140.37 165.506 139.853 165.162Z" fill="black"></path><path d="M149.76 170.974L142.869 166.97C142.309 166.669 141.404 166.669 140.844 166.97L135.288 170.07C134.728 170.415 134.685 170.931 135.245 171.233L142.093 175.237C142.653 175.581 143.558 175.538 144.161 175.237L149.717 172.137C150.277 171.792 150.32 171.276 149.76 170.974Z" fill="black"></path><path d="M159.624 176.701L152.732 172.697C152.172 172.395 151.268 172.395 150.665 172.697L145.109 175.797C144.549 176.141 144.506 176.658 145.066 176.959L151.957 180.963C152.517 181.265 153.422 181.265 154.025 180.963L159.581 177.863C160.141 177.562 160.184 177.002 159.624 176.701Z" fill="black"></path><path d="M169.444 182.427L162.553 178.423C161.993 178.122 161.088 178.122 160.528 178.423L154.972 181.523C154.412 181.868 154.369 182.384 154.929 182.686L161.777 186.69C162.337 187.034 163.242 186.991 163.845 186.69L169.401 183.59C170.004 183.289 170.004 182.772 169.444 182.427Z" fill="black"></path><path d="M179.308 188.154L172.416 184.15C171.857 183.848 170.952 183.848 170.349 184.15L164.793 187.25C164.233 187.594 164.19 188.111 164.75 188.412L171.641 192.416C172.201 192.718 173.106 192.718 173.709 192.416L179.265 189.316C179.825 189.015 179.825 188.498 179.308 188.154Z" fill="black"></path><path d="M189.128 193.88L182.237 189.875C181.677 189.574 180.772 189.574 180.212 189.875L174.656 192.975C174.096 193.32 174.053 193.837 174.613 194.138L181.461 198.142C182.021 198.443 182.926 198.443 183.529 198.142L189.085 195.042C189.688 194.741 189.688 194.224 189.128 193.88Z" fill="black"></path><path d="M198.992 199.606L192.144 195.602C191.584 195.301 190.679 195.301 190.076 195.602L184.52 198.702C183.96 199.046 183.917 199.563 184.477 199.864L191.368 203.869C191.928 204.213 192.833 204.17 193.436 203.869L198.992 200.769C199.509 200.467 199.552 199.951 198.992 199.606Z" fill="black"></path><path d="M208.855 205.376L201.964 201.372C201.404 201.07 200.499 201.07 199.896 201.372L194.34 204.472C193.78 204.816 193.737 205.333 194.297 205.634L201.189 209.638C201.748 209.94 202.653 209.94 203.256 209.638L208.812 206.538C209.372 206.194 209.415 205.677 208.855 205.376Z" fill="black"></path><path d="M218.676 211.102L211.785 207.098C211.225 206.753 210.32 206.797 209.717 207.098L204.161 210.198C203.558 210.542 203.558 211.059 204.118 211.36L211.009 215.365C211.569 215.666 212.474 215.666 213.077 215.365L218.633 212.265C219.193 211.963 219.236 211.403 218.676 211.102Z" fill="black"></path><path d="M228.539 216.828L221.648 212.824C221.088 212.479 220.183 212.522 219.624 212.824L214.067 215.923C213.464 216.225 213.464 216.785 214.024 217.086L220.916 221.09C221.476 221.391 222.38 221.391 222.983 221.09L228.539 217.99C229.056 217.689 229.099 217.172 228.539 216.828Z" fill="black"></path><path d="M238.36 222.554L231.469 218.55C230.909 218.249 230.004 218.249 229.444 218.55L223.888 221.65C223.328 221.995 223.285 222.511 223.845 222.813L230.736 226.817C231.296 227.118 232.201 227.118 232.804 226.817L238.36 223.717C238.877 223.415 238.92 222.899 238.36 222.554Z" fill="black"></path><path d="M248.224 228.281L241.332 224.277C240.772 223.932 239.868 223.975 239.308 224.277L233.751 227.377C233.148 227.678 233.148 228.238 233.708 228.539L240.557 232.543C241.117 232.888 242.021 232.845 242.624 232.543L248.18 229.443C248.74 229.142 248.783 228.625 248.224 228.281Z" fill="black"></path><path d="M258.044 234.007L251.153 230.002C250.593 229.701 249.688 229.701 249.085 230.002L243.529 233.102C242.969 233.447 242.926 233.963 243.486 234.265L250.378 238.269C250.894 238.57 251.842 238.57 252.445 238.269L258.001 235.169C258.561 234.868 258.604 234.351 258.044 234.007Z" fill="black"></path><path d="M128.181 168.046L105.008 154.527C104.448 154.225 103.544 154.225 102.984 154.527L97.4275 157.627C96.8245 157.971 96.8245 158.488 97.3844 158.789L120.557 172.309C121.117 172.61 122.022 172.61 122.625 172.309L128.181 169.209C128.698 168.907 128.741 168.391 128.181 168.046Z" fill="black"></path><path d="M138.088 173.816L131.196 169.812C130.636 169.51 129.732 169.467 129.129 169.812L123.572 172.912C123.013 173.256 122.969 173.773 123.529 174.074L130.378 178.078C130.938 178.38 131.842 178.38 132.445 178.078L138.002 174.978C138.605 174.677 138.605 174.16 138.088 173.816Z" fill="black"></path><path d="M147.908 179.543L141.06 175.539C140.5 175.237 139.596 175.237 138.993 175.539L133.479 178.639C132.876 178.94 132.876 179.5 133.436 179.801L140.328 183.805C140.888 184.15 141.792 184.15 142.395 183.805L147.952 180.705C148.468 180.404 148.468 179.887 147.908 179.543Z" fill="black"></path><path d="M157.772 185.268L150.88 181.264C150.32 180.92 149.416 180.92 148.856 181.264L143.3 184.364C142.697 184.709 142.697 185.225 143.257 185.527L150.148 189.531C150.708 189.875 151.613 189.832 152.216 189.531L157.772 186.431C158.289 186.129 158.289 185.613 157.772 185.268Z" fill="black"></path><path d="M167.592 190.995L160.701 186.991C160.184 186.689 159.236 186.689 158.676 186.991L153.12 190.091C152.517 190.392 152.517 190.952 153.077 191.253L159.968 195.257C160.528 195.559 161.433 195.602 162.036 195.257L167.592 192.157C168.109 191.856 168.152 191.339 167.592 190.995Z" fill="black"></path><path d="M177.455 196.764L170.564 192.76C170.004 192.459 169.099 192.459 168.496 192.76L162.983 195.86C162.38 196.205 162.38 196.721 162.94 197.023L169.832 201.027C170.392 201.328 171.296 201.328 171.856 201.027L177.412 197.927C177.972 197.582 177.972 197.066 177.455 196.764Z" fill="black"></path><path d="M187.276 202.49L180.384 198.486C179.824 198.184 178.92 198.141 178.317 198.486L172.76 201.586C172.201 201.93 172.157 202.447 172.717 202.748L179.609 206.752C180.169 207.054 181.073 207.054 181.633 206.752L187.19 203.652C187.793 203.308 187.836 202.791 187.276 202.49Z" fill="black"></path><path d="M197.14 208.217L190.249 204.213C189.689 203.912 188.784 203.869 188.181 204.213L182.625 207.313C182.022 207.658 182.022 208.174 182.582 208.476L189.473 212.48C190.033 212.824 190.938 212.824 191.541 212.48L197.097 209.38C197.657 209.078 197.7 208.562 197.14 208.217Z" fill="black"></path><path d="M206.96 213.943L200.069 209.939C199.509 209.595 198.604 209.595 198.001 209.939L192.445 213.039C191.885 213.383 191.842 213.9 192.402 214.201L199.25 218.206C199.81 218.507 200.715 218.507 201.275 218.206L206.831 215.106C207.52 214.804 207.52 214.288 206.96 213.943Z" fill="black"></path><path d="M216.824 219.712L209.933 215.708C209.373 215.407 208.468 215.364 207.865 215.708L202.309 218.808C201.749 219.153 201.706 219.669 202.266 219.971L209.157 223.975C209.717 224.276 210.622 224.276 211.182 223.975L216.738 220.875C217.384 220.53 217.384 220.014 216.824 219.712Z" fill="black"></path><path d="M226.644 225.438L219.753 221.434C219.193 221.133 218.288 221.133 217.728 221.434L212.172 224.534C211.569 224.878 211.569 225.395 212.129 225.696L219.021 229.701C219.581 230.002 220.485 230.002 221.088 229.701L226.644 226.601C227.204 226.256 227.204 225.74 226.644 225.438Z" fill="black"></path><path d="M236.508 231.165L229.617 227.161C229.057 226.816 228.152 226.816 227.592 227.161L222.036 230.261C221.433 230.605 221.433 231.079 221.993 231.423L228.841 235.427C229.401 235.772 230.306 235.772 230.909 235.427L236.465 232.327C237.025 231.983 237.068 231.466 236.508 231.165Z" fill="black"></path><path d="M246.328 236.892L239.437 232.888C238.877 232.587 237.972 232.587 237.412 232.888L231.856 235.988C231.296 236.333 231.253 236.849 231.813 237.151L238.662 241.155C239.222 241.499 240.126 241.499 240.729 241.155L246.285 238.055C246.888 237.71 246.888 237.194 246.328 236.892Z" fill="black"></path><path d="M103.888 163.655L96.4799 159.349C95.92 159.005 95.0155 159.005 94.4555 159.349L88.8992 162.449C88.2962 162.794 88.2962 163.31 88.8561 163.612L96.2646 167.917C96.8245 168.219 97.729 168.219 98.289 167.917L103.845 164.817C104.405 164.473 104.405 163.956 103.888 163.655Z" fill="black"></path><path d="M114.096 169.597L106.688 165.291C106.128 164.99 105.224 164.947 104.621 165.291L99.0642 168.391C98.4612 168.736 98.4612 169.252 99.0212 169.554L106.43 173.859C106.99 174.161 107.894 174.161 108.454 173.859L114.01 170.759C114.656 170.458 114.656 169.941 114.096 169.597Z" fill="black"></path><path d="M93.1202 167.099L87.9084 164.042C87.3485 163.741 86.444 163.741 85.841 164.042L71.8855 171.835C71.2825 172.18 71.2825 172.697 71.8425 172.998L77.0542 176.012C77.6141 176.313 78.5187 176.313 79.0786 176.012L93.034 168.219C93.637 167.96 93.6801 167.444 93.1202 167.099Z" fill="black"></path><path d="M103.544 173.17L96.1352 168.865C95.5753 168.52 94.6708 168.563 94.0678 168.865L88.5114 171.964C87.9515 172.266 87.9084 172.826 88.4684 173.127L95.8768 177.432C96.4368 177.734 97.3413 177.734 97.9443 177.432L103.501 174.333C104.061 174.031 104.104 173.471 103.544 173.17Z" fill="black"></path><path d="M134.34 181.307L127.449 177.303C126.889 177.002 125.984 177.002 125.381 177.303L119.825 180.403C119.265 180.705 119.222 181.221 119.782 181.566L126.673 185.57C127.233 185.914 128.138 185.871 128.698 185.57L134.254 182.47C134.857 182.168 134.9 181.652 134.34 181.307Z" fill="black"></path><path d="M124.391 175.538L117.542 171.533C116.982 171.189 116.078 171.232 115.475 171.533L106.99 176.27L104.965 177.389L101.476 179.369C100.873 179.671 100.873 180.231 101.433 180.532L115.044 188.454C115.604 188.799 116.509 188.756 117.112 188.454L122.668 185.354C123.228 185.053 123.271 184.536 122.711 184.192L116.896 180.833L124.348 176.7C124.908 176.399 124.951 175.839 124.391 175.538Z" fill="black"></path><path d="M144.161 187.077L137.27 183.073C136.71 182.771 135.805 182.771 135.202 183.073L129.646 186.173C129.086 186.474 129.043 187.034 129.603 187.335L136.494 191.339C137.054 191.641 137.959 191.641 138.519 191.339L144.075 188.239C144.678 187.895 144.721 187.378 144.161 187.077Z" fill="black"></path><path d="M154.024 192.803L147.133 188.799C146.573 188.498 145.668 188.498 145.065 188.799L139.552 191.899C138.992 192.201 138.949 192.76 139.509 193.062L146.4 197.066C146.96 197.367 147.865 197.367 148.468 197.066L154.024 193.966C154.541 193.621 154.584 193.105 154.024 192.803Z" fill="black"></path><path d="M163.845 198.53L156.954 194.526C156.394 194.181 155.489 194.181 154.886 194.526L149.33 197.626C148.77 197.927 148.727 198.487 149.287 198.788L156.135 202.792C156.695 203.137 157.6 203.094 158.203 202.792L163.759 199.693C164.362 199.348 164.405 198.831 163.845 198.53Z" fill="black"></path><path d="M173.708 204.256L166.817 200.251C166.257 199.95 165.352 199.95 164.749 200.251L159.193 203.351C158.633 203.653 158.59 204.213 159.15 204.514L166.042 208.518C166.602 208.819 167.506 208.819 168.066 208.518L173.622 205.418C174.225 205.117 174.268 204.557 173.708 204.256Z" fill="black"></path><path d="M183.529 209.982L176.681 205.978C176.121 205.677 175.216 205.677 174.613 205.978L169.057 209.078C168.497 209.379 168.454 209.939 169.014 210.24L175.905 214.245C176.465 214.589 177.37 214.546 177.93 214.245L183.486 211.145C184.046 210.843 184.089 210.327 183.529 209.982Z" fill="black"></path><path d="M193.393 215.708L186.501 211.704C185.941 211.402 185.037 211.402 184.433 211.704L178.877 214.804C178.317 215.105 178.274 215.665 178.834 215.966L185.726 219.97C186.286 220.272 187.19 220.272 187.793 219.97L193.349 216.87C193.909 216.569 193.952 216.052 193.393 215.708Z" fill="black"></path><path d="M203.256 221.478L196.365 217.474C195.805 217.173 194.9 217.173 194.297 217.474L188.741 220.574C188.181 220.875 188.138 221.435 188.698 221.737L195.589 225.741C196.149 226.085 197.054 226.085 197.657 225.741L203.213 222.641C203.773 222.296 203.773 221.78 203.256 221.478Z" fill="black"></path><path d="M213.077 227.204L206.185 223.2C205.625 222.898 204.721 222.898 204.118 223.2L198.561 226.3C198.001 226.601 197.958 227.118 198.518 227.462L205.41 231.466C205.97 231.811 206.874 231.768 207.434 231.466L212.99 228.366C213.593 228.022 213.637 227.505 213.077 227.204Z" fill="black"></path><path d="M222.94 232.93L216.049 228.926C215.489 228.625 214.584 228.625 213.981 228.926L208.425 232.026C207.865 232.328 207.822 232.887 208.382 233.189L215.274 237.193C215.833 237.494 216.738 237.494 217.341 237.193L222.897 234.093C223.457 233.748 223.457 233.232 222.94 232.93Z" fill="black"></path><path d="M241.074 243.479L226.041 234.739C225.482 234.437 224.577 234.437 223.974 234.739L218.418 237.839C217.858 238.14 217.815 238.7 218.375 239.001L233.407 247.741C233.967 248.043 234.871 248.043 235.474 247.741L241.031 244.641C241.591 244.34 241.591 243.823 241.074 243.479Z" fill="black"></path><path d="M132.445 189.919L125.553 185.915C124.994 185.613 124.089 185.613 123.529 185.915L118.016 189.014C117.456 189.316 117.413 189.876 117.973 190.177L124.821 194.181C125.381 194.482 126.286 194.482 126.889 194.181L132.445 191.081C133.005 190.78 133.005 190.22 132.445 189.919Z" fill="black"></path><path d="M142.308 195.645L135.417 191.641C134.857 191.34 133.952 191.34 133.392 191.641L127.836 194.741C127.276 195.042 127.233 195.602 127.793 195.904L134.685 199.908C135.245 200.252 136.149 200.209 136.752 199.908L142.308 196.808C142.825 196.506 142.868 195.99 142.308 195.645Z" fill="black"></path><path d="M152.172 201.372L145.281 197.367C144.721 197.023 143.816 197.066 143.213 197.367L137.657 200.467C137.054 200.812 137.054 201.329 137.614 201.63L144.506 205.634C145.065 205.935 145.97 205.935 146.573 205.634L152.129 202.534C152.689 202.233 152.689 201.716 152.172 201.372Z" fill="black"></path><path d="M161.993 207.097L155.101 203.093C154.541 202.792 153.637 202.792 153.034 203.093L147.477 206.193C146.917 206.538 146.874 207.054 147.434 207.356L154.326 211.36C154.886 211.661 155.79 211.661 156.393 211.36L161.95 208.26C162.509 207.958 162.553 207.442 161.993 207.097Z" fill="black"></path><path d="M171.813 212.824L164.922 208.82C164.362 208.518 163.457 208.518 162.897 208.82L157.341 211.92C156.781 212.264 156.738 212.781 157.298 213.082L164.19 217.086C164.749 217.388 165.654 217.388 166.257 217.086L171.813 213.986C172.373 213.685 172.373 213.168 171.813 212.824Z" fill="black"></path><path d="M181.677 218.593L174.828 214.589C174.268 214.288 173.364 214.288 172.761 214.589L167.204 217.689C166.601 218.034 166.601 218.55 167.161 218.852L174.053 222.856C174.613 223.157 175.517 223.157 176.12 222.856L181.677 219.756C182.237 219.455 182.237 218.895 181.677 218.593Z" fill="black"></path><path d="M191.54 224.32L184.649 220.316C184.089 219.971 183.184 220.014 182.624 220.316L177.068 223.416C176.465 223.717 176.465 224.277 177.025 224.578L183.917 228.582C184.477 228.884 185.381 228.884 185.984 228.582L191.54 225.482C192.057 225.138 192.1 224.621 191.54 224.32Z" fill="black"></path><path d="M201.404 230.045L194.512 226.041C193.952 225.697 193.048 225.74 192.445 226.041L186.888 229.141C186.328 229.486 186.285 230.002 186.845 230.304L193.737 234.308C194.297 234.652 195.201 234.609 195.804 234.308L201.361 231.208C201.921 230.907 201.921 230.39 201.404 230.045Z" fill="black"></path><path d="M211.224 235.772L204.376 231.768C203.816 231.467 202.911 231.467 202.351 231.768L196.795 234.868C196.235 235.169 196.192 235.729 196.752 236.03L203.644 240.035C204.204 240.336 205.108 240.336 205.711 240.035L211.267 236.935C211.741 236.633 211.784 236.117 211.224 235.772Z" fill="black"></path><path d="M221.045 241.499L214.153 237.495C213.593 237.193 212.689 237.193 212.129 237.495L206.572 240.595C206.013 240.896 205.969 241.456 206.529 241.757L213.421 245.761C213.981 246.063 214.885 246.063 215.488 245.761L221.045 242.661C221.605 242.36 221.605 241.843 221.045 241.499Z" fill="black"></path><path d="M232.588 248.216L224.06 243.264C223.5 242.92 222.596 242.92 221.993 243.264L216.436 246.364C215.833 246.709 215.833 247.225 216.393 247.527L224.922 252.521C225.481 252.822 226.386 252.822 226.989 252.521L232.545 249.421C233.105 249.077 233.105 248.517 232.588 248.216Z" fill="black"></path><path d="M95.1013 177.864L87.6929 173.558C87.1329 173.257 86.2284 173.257 85.6254 173.558L80.0691 176.658C79.5091 177.002 79.4661 177.519 80.026 177.821L87.4344 182.126C87.9944 182.47 88.8989 182.47 89.5019 182.126L95.0582 179.026C95.6182 178.725 95.6182 178.165 95.1013 177.864Z" fill="black"></path><path d="M107.42 185.01L98.332 179.714C97.7721 179.37 96.8676 179.37 96.2646 179.714L90.7082 182.814C90.1483 183.116 90.1052 183.675 90.6652 183.977L99.7534 189.273C100.313 189.574 101.218 189.574 101.778 189.273L107.334 186.173C107.937 185.828 107.98 185.312 107.42 185.01Z" fill="black"></path><path d="M117.37 190.78L110.521 186.776C109.962 186.474 109.057 186.474 108.454 186.776L102.898 189.876C102.338 190.177 102.295 190.737 102.855 191.038L109.746 195.042C110.306 195.344 111.211 195.344 111.771 195.042L117.327 191.942C117.887 191.641 117.93 191.081 117.37 190.78Z" fill="black"></path><path d="M127.19 196.506L120.299 192.502C119.739 192.158 118.834 192.201 118.231 192.502L112.675 195.602C112.115 195.904 112.072 196.463 112.632 196.765L119.524 200.769C120.083 201.07 120.988 201.07 121.591 200.769L127.147 197.669C127.75 197.367 127.75 196.808 127.19 196.506Z" fill="black"></path><path d="M137.054 202.232L130.163 198.228C129.603 197.927 128.698 197.927 128.095 198.228L122.539 201.328C121.979 201.629 121.936 202.189 122.496 202.49L129.344 206.495C129.904 206.796 130.809 206.796 131.412 206.495L136.968 203.395C137.571 203.093 137.614 202.577 137.054 202.232Z" fill="black"></path><path d="M146.874 207.959L139.983 203.955C139.423 203.653 138.518 203.653 137.915 203.955L132.359 207.055C131.799 207.356 131.756 207.916 132.316 208.217L139.165 212.221C139.724 212.566 140.629 212.523 141.189 212.221L146.745 209.121C147.391 208.82 147.434 208.303 146.874 207.959Z" fill="black"></path><path d="M156.738 213.685L149.846 209.681C149.329 209.38 148.382 209.38 147.779 209.681L142.222 212.781C141.662 213.126 141.619 213.642 142.179 213.944L149.071 217.948C149.631 218.249 150.535 218.249 151.095 217.948L156.652 214.848C157.255 214.546 157.298 214.03 156.738 213.685Z" fill="black"></path><path d="M166.559 219.455L159.667 215.45C159.107 215.106 158.203 215.149 157.6 215.45L152.043 218.55C151.483 218.852 151.44 219.412 152 219.713L158.892 223.717C159.452 224.018 160.356 224.018 160.959 223.717L166.515 220.617C167.075 220.273 167.118 219.756 166.559 219.455Z" fill="black"></path><path d="M176.422 225.18L169.531 221.176C168.971 220.832 168.066 220.875 167.463 221.176L161.907 224.276C161.347 224.62 161.304 225.137 161.864 225.439L168.755 229.443C169.315 229.787 170.22 229.744 170.78 229.443L176.336 226.343C176.982 226.041 176.982 225.482 176.422 225.18Z" fill="black"></path><path d="M186.286 230.907L179.437 226.903C178.877 226.601 177.973 226.601 177.37 226.903L171.813 230.003C171.253 230.347 171.21 230.864 171.77 231.165L178.662 235.169C179.222 235.471 180.126 235.471 180.729 235.169L186.286 232.069C186.802 231.768 186.845 231.208 186.286 230.907Z" fill="black"></path><path d="M196.106 236.633L189.214 232.629C188.654 232.328 187.75 232.328 187.147 232.629L181.591 235.729C181.031 236.031 180.988 236.547 181.547 236.892L188.439 240.896C188.999 241.24 189.904 241.197 190.507 240.896L196.063 237.796C196.623 237.495 196.666 236.978 196.106 236.633Z" fill="black"></path><path d="M205.97 242.359L199.122 238.355C198.562 238.054 197.657 238.054 197.054 238.355L191.498 241.455C190.938 241.756 190.895 242.316 191.455 242.617L198.346 246.622C198.906 246.923 199.811 246.923 200.371 246.622L205.927 243.522C206.487 243.22 206.487 242.704 205.97 242.359Z" fill="black"></path><path d="M76.1496 176.572L70.9379 173.558C70.3779 173.257 69.4734 173.257 68.8704 173.558L54.8288 181.394C54.2689 181.739 54.2258 182.255 54.7858 182.557L59.9975 185.57C60.5575 185.872 61.462 185.872 62.065 185.57L76.1066 177.734C76.6665 177.39 76.7096 176.873 76.1496 176.572Z" fill="black"></path><path d="M86.7454 182.728L78.9062 178.165C78.3463 177.863 77.4418 177.863 76.8388 178.165L71.2824 181.264C70.7225 181.566 70.6794 182.126 71.2394 182.427L79.0785 186.991C79.6385 187.292 80.543 187.292 81.146 186.991L86.7023 183.891C87.3053 183.589 87.3053 183.073 86.7454 182.728Z" fill="black"></path><path d="M93.6802 186.733L89.8037 184.451C89.2438 184.106 88.3393 184.106 87.7362 184.451L82.1799 187.551C81.62 187.852 81.5769 188.412 82.1368 188.713L86.0133 190.952C86.5733 191.296 87.4778 191.253 88.0808 190.952L93.6371 187.852C94.1971 187.594 94.2402 187.077 93.6802 186.733Z" fill="black"></path><path d="M101.045 191.038L96.9966 188.67C96.4366 188.326 95.5321 188.369 94.9291 188.67L89.3728 191.77C88.8128 192.072 88.7698 192.588 89.3297 192.933L93.3785 195.301C93.9384 195.602 94.843 195.602 95.446 195.301L101.002 192.201C101.562 191.899 101.605 191.383 101.045 191.038Z" fill="black"></path><path d="M115.431 199.391L104.146 192.846C103.587 192.545 102.682 192.545 102.079 192.846L96.5227 195.946C95.9627 196.247 95.9197 196.807 96.4796 197.109L107.765 203.653C108.324 203.997 109.229 203.997 109.832 203.653L115.388 200.553C115.948 200.252 115.948 199.735 115.431 199.391Z" fill="black"></path><path d="M125.252 205.16L118.361 201.156C117.801 200.811 116.896 200.854 116.293 201.156L110.737 204.255C110.177 204.557 110.134 205.117 110.694 205.418L117.542 209.422C118.102 209.767 119.007 209.723 119.61 209.422L125.166 206.322C125.769 205.978 125.812 205.461 125.252 205.16Z" fill="black"></path><path d="M135.116 210.886L128.224 206.882C127.664 206.581 126.76 206.581 126.157 206.882L120.6 209.982C120.04 210.284 119.997 210.843 120.557 211.145L127.449 215.149C128.009 215.45 128.913 215.45 129.516 215.149L135.073 212.049C135.633 211.704 135.633 211.188 135.116 210.886Z" fill="black"></path><path d="M144.936 216.613L138.044 212.609C137.484 212.307 136.58 212.307 135.977 212.609L130.421 215.709C129.861 216.01 129.818 216.57 130.378 216.871L137.269 220.875C137.829 221.177 138.734 221.177 139.337 220.875L144.893 217.775C145.453 217.474 145.496 216.914 144.936 216.613Z" fill="black"></path><path d="M154.8 222.338L147.908 218.334C147.348 217.99 146.444 218.033 145.841 218.334L140.284 221.434C139.724 221.736 139.681 222.295 140.241 222.597L147.133 226.601C147.693 226.945 148.597 226.902 149.157 226.601L154.714 223.501C155.317 223.199 155.317 222.64 154.8 222.338Z" fill="black"></path><path d="M164.663 228.065L157.815 224.061C157.255 223.76 156.35 223.76 155.747 224.061L150.191 227.161C149.631 227.462 149.588 228.022 150.148 228.323L157.04 232.328C157.6 232.629 158.504 232.629 159.064 232.328L164.62 229.228C165.18 228.926 165.18 228.41 164.663 228.065Z" fill="black"></path><path d="M174.484 233.792L167.592 229.788C167.032 229.444 166.128 229.487 165.525 229.788L159.968 232.888C159.409 233.19 159.365 233.749 159.925 234.051L166.774 238.055C167.334 238.356 168.238 238.356 168.798 238.055L174.441 234.998C175.001 234.654 175.044 234.137 174.484 233.792Z" fill="black"></path><path d="M184.347 239.56L177.456 235.556C176.896 235.255 175.991 235.255 175.388 235.556L169.832 238.656C169.272 238.957 169.229 239.517 169.789 239.819L176.68 243.823C177.24 244.124 178.145 244.124 178.705 243.823L184.261 240.723C184.864 240.378 184.864 239.862 184.347 239.56Z" fill="black"></path><path d="M194.168 245.287L187.276 241.283C186.716 240.981 185.812 240.981 185.209 241.283L179.653 244.383C179.093 244.727 179.05 245.244 179.609 245.545L186.458 249.549C187.018 249.894 187.922 249.851 188.525 249.549L194.082 246.449C194.685 246.105 194.728 245.588 194.168 245.287Z" fill="black"></path><path d="M204.031 251.014L197.183 247.01C196.623 246.709 195.718 246.709 195.115 247.01L189.559 250.11C188.999 250.412 188.956 250.971 189.516 251.273L196.407 255.277C196.967 255.621 197.872 255.578 198.432 255.277L203.988 252.177C204.548 251.875 204.548 251.316 204.031 251.014Z" fill="black"></path><path d="M213.852 256.741L206.96 252.737C206.401 252.392 205.496 252.435 204.893 252.737L199.337 255.837C198.777 256.138 198.734 256.698 199.294 256.999L206.185 261.003C206.745 261.305 207.65 261.305 208.21 261.003L213.766 257.903C214.369 257.602 214.412 257.042 213.852 256.741Z" fill="black"></path><path d="M80.4999 188.755L73.6083 184.751C73.0484 184.407 72.1439 184.45 71.584 184.751L66.0276 187.851C65.4246 188.153 65.4246 188.712 65.9845 189.014L72.833 193.018C73.393 193.362 74.2975 193.319 74.9005 193.018L80.4568 189.918C81.0168 189.616 81.0599 189.1 80.4999 188.755Z" fill="black"></path><path d="M90.3636 194.482L83.5151 190.478C82.9552 190.133 82.0507 190.176 81.4477 190.478L75.8913 193.578C75.3314 193.922 75.2883 194.439 75.8483 194.74L82.7398 198.744C83.2998 199.046 84.2043 199.046 84.8073 198.744L90.3636 195.644C90.8805 195.343 90.8805 194.826 90.3636 194.482Z" fill="black"></path><path d="M100.27 200.295L93.4218 196.29C92.8619 195.989 91.9574 195.989 91.3974 196.29L85.8411 199.39C85.2381 199.735 85.2381 200.252 85.798 200.553L92.6896 204.557C93.2495 204.902 94.154 204.858 94.7571 204.557L100.313 201.457C100.787 201.156 100.83 200.596 100.27 200.295Z" fill="black"></path><path d="M110.134 206.021L103.285 202.017C102.725 201.716 101.821 201.716 101.218 202.017L95.6613 205.117C95.1014 205.418 95.0583 205.978 95.6183 206.28L102.51 210.284C103.07 210.585 103.974 210.585 104.577 210.284L110.134 207.184C110.651 206.882 110.651 206.323 110.134 206.021Z" fill="black"></path><path d="M159.366 234.696L113.106 207.744C112.546 207.442 111.641 207.442 111.081 207.744L105.525 210.844C104.965 211.188 104.922 211.705 105.482 212.006L151.742 238.959C152.302 239.26 153.206 239.26 153.809 238.959L159.366 235.859C159.882 235.557 159.925 234.997 159.366 234.696Z" fill="black"></path><path d="M169.186 240.422L162.294 236.417C161.734 236.116 160.83 236.116 160.27 236.417L154.714 239.517C154.154 239.862 154.111 240.379 154.671 240.68L161.562 244.684C162.122 245.028 163.027 244.985 163.63 244.684L169.186 241.584C169.703 241.283 169.746 240.766 169.186 240.422Z" fill="black"></path><path d="M179.049 246.148L172.158 242.144C171.598 241.843 170.693 241.843 170.133 242.144L164.577 245.244C163.974 245.588 163.974 246.105 164.534 246.406L171.425 250.411C171.985 250.755 172.89 250.712 173.493 250.411L179.049 247.311C179.566 247.009 179.609 246.493 179.049 246.148Z" fill="black"></path><path d="M188.87 251.876L182.022 247.872C181.462 247.57 180.557 247.57 179.954 247.872L174.398 250.972C173.795 251.316 173.795 251.833 174.355 252.134L181.246 256.138C181.806 256.483 182.711 256.44 183.314 256.138L188.87 253.038C189.387 252.737 189.43 252.22 188.87 251.876Z" fill="black"></path><path d="M198.733 257.601L191.885 253.597C191.325 253.296 190.42 253.296 189.817 253.597L184.261 256.697C183.701 257.042 183.658 257.558 184.218 257.86L191.109 261.864C191.669 262.165 192.574 262.165 193.177 261.864L198.733 258.764C199.25 258.462 199.293 257.946 198.733 257.601Z" fill="black"></path><path d="M207.004 262.467L201.663 259.367C201.103 259.065 200.198 259.065 199.595 259.367L194.039 262.467C193.436 262.811 193.436 263.328 193.996 263.629L199.337 266.729C199.897 267.03 200.801 267.03 201.404 266.729L206.961 263.629C207.52 263.285 207.564 262.768 207.004 262.467Z" fill="black"></path><path d="M311.067 87.877L163.802 2.06825C159.883 -0.213665 155.231 2.54186 154.24 6.67515L117.457 137.95C117.457 138.94 117.973 139.888 118.878 140.404L275.187 231.466C277.083 232.585 278.762 231.337 279.451 229.012L316.192 96.7894C316.192 93.1297 314.254 89.7284 311.067 87.877Z" fill="white"></path><path d="M276.566 232.112C276.092 232.112 275.575 231.983 275.058 231.681L118.792 140.62C117.844 140.06 117.241 139.07 117.241 137.95V137.907L153.982 6.63244C154.499 4.39358 156.179 2.4561 158.246 1.55194C160.141 0.733898 162.123 0.863063 163.889 1.89639L311.153 87.7052C314.383 89.5996 316.408 93.087 316.408 96.8328V96.8759L279.624 229.098C279.193 230.562 278.418 231.552 277.427 231.94C277.169 232.069 276.867 232.112 276.566 232.112ZM117.715 137.993C117.715 138.898 118.232 139.759 119.007 140.189L275.317 231.251C276.006 231.638 276.695 231.724 277.298 231.466C278.159 231.122 278.849 230.217 279.236 228.926L315.977 96.7037C315.977 93.1301 314.039 89.8149 310.98 88.0496L163.673 2.28388C162.036 1.33667 160.227 1.25056 158.461 1.9825C156.48 2.80054 154.973 4.65191 154.456 6.76161L117.715 137.993Z" fill="black"></path><path d="M160.055 12.6172L124.908 136.228L275.144 222.769L310.851 99.8037L160.055 12.6172Z" fill="#0047FF"></path><path d="M275.316 223.156L275.058 222.984L124.649 136.357L124.692 136.185L159.926 12.2725L160.184 12.4447L311.109 99.7173L311.066 99.8895L275.316 223.156ZM125.209 136.099L275.015 222.424L310.549 99.8895L160.227 12.9613L125.209 136.099Z" fill="black"></path><path d="M249.578 78.3959C245.916 95.3596 252.679 119.384 264.61 131.913C271.674 139.319 278.953 141.084 284.509 137.769C280.073 137.812 275.119 135.401 270.295 130.32C258.364 117.791 251.602 93.7665 255.263 76.8028C256.771 69.8279 261.422 64.8766 265.256 62.6377C258.752 62.6808 251.731 68.321 249.578 78.3959Z" fill="black"></path><path d="M285.069 141.902L290.97 140.266C294.33 139.319 297.905 137.123 299.369 135.53C301.049 133.722 302.384 131.612 304.237 126.919L297.733 127.78C297.69 127.823 289.893 139.448 285.069 141.902Z" fill="black"></path><path d="M297.302 122.226C297.862 116.801 297.948 114.863 297.948 112.926C297.948 109.137 297.689 105.391 297.043 101.645C295.923 95.1441 293.985 88.7289 291.099 82.7873C288.3 76.9749 284.595 71.3777 279.814 66.9C272.707 60.2265 262.37 58.8056 262.37 58.8056L266.85 57.6001C273.224 55.8348 280.719 58.0737 287.826 64.7042C290.496 67.2014 292.865 70.1291 294.89 73.143C296.699 75.8985 298.292 78.7832 299.671 81.754C301.049 84.8109 302.255 87.9109 303.16 91.14C305.012 97.7274 307.596 110.213 305.572 119.901L297.302 122.226Z" fill="black"></path><path d="M305.572 119.944L319.613 134.325L313.971 135.918L299.929 121.494L305.572 119.944Z" fill="black"></path><path d="M309.922 140.438L314.918 136.95L299.929 121.494C302.169 97.598 294.33 78.1802 282.054 66.2539C275.292 59.6665 268.228 57.3415 262.155 58.8485C259.269 59.5373 256.642 61.1304 254.402 63.5845C253.799 64.2304 253.196 64.9623 252.636 65.6942C252.377 66.0817 252.119 66.4692 251.86 66.8998C251.602 67.3303 251.344 67.7609 251.085 68.1914C250.611 69.0956 250.138 70.0428 249.707 71.0331C249.492 71.5497 249.276 72.0664 249.104 72.583C249.018 72.8414 248.932 73.0997 248.845 73.4011C248.673 73.9608 248.501 74.5205 248.329 75.0802C248.242 75.3816 248.156 75.683 248.113 75.9844C243.289 94.8425 250.698 121.149 264.567 134.668C264.782 134.884 264.998 135.099 265.213 135.271C265.601 135.616 265.988 135.96 266.376 136.305C267.496 137.295 268.659 138.113 269.779 138.845C270.209 139.146 270.64 139.404 271.071 139.62C271.458 139.835 271.889 140.05 272.277 140.266C272.492 140.352 275.033 141.428 275.076 141.428C275.335 141.514 275.593 141.6 275.852 141.686C276.024 141.729 277.015 141.988 277.359 142.074C277.575 142.117 277.833 142.16 278.048 142.203C278.221 142.246 278.436 142.246 278.608 142.289C278.91 142.332 279.211 142.375 279.47 142.375C279.642 142.375 279.771 142.418 279.944 142.418C280.288 142.418 281.15 142.418 281.279 142.418C281.667 142.418 282.054 142.375 282.442 142.332C282.657 142.332 282.829 142.289 283.045 142.246C283.605 142.16 284.122 142.074 284.682 141.902C284.725 141.902 284.768 141.902 284.811 141.859L285.112 141.773C289.721 140.395 295.967 136.993 298.206 128.21L309.922 140.438ZM292.607 129.2C290.496 133.807 287.481 136.778 283.906 137.855C283.906 137.855 283.605 137.941 283.562 137.941C283.174 138.027 282.829 138.113 282.485 138.156C282.399 138.156 282.356 138.156 282.27 138.199C282.183 138.199 282.097 138.199 282.011 138.242C281.71 138.285 281.451 138.285 281.15 138.285C281.02 138.285 280.417 138.285 280.159 138.285C280.073 138.285 279.944 138.285 279.814 138.242C279.599 138.199 279.341 138.199 279.125 138.156C278.996 138.156 278.824 138.113 278.695 138.07C278.565 138.027 278.393 138.027 278.221 137.984C277.962 137.941 277.187 137.725 277.015 137.682C276.842 137.639 276.713 137.596 276.541 137.553C276.11 137.381 274.517 136.692 274.086 136.52C273.784 136.348 273.44 136.175 273.138 136.003C272.707 135.788 272.406 135.573 272.061 135.357C271.028 134.712 270.037 133.937 269.089 133.118C268.745 132.817 268.4 132.516 268.056 132.214C267.883 132.085 267.797 131.956 267.711 131.87L267.41 131.612C261.25 125.627 256.254 116.585 253.325 106.209C250.396 95.7897 250.008 85.4565 252.119 77.0177C252.205 76.7594 252.248 76.458 252.334 76.1997C252.463 75.7261 252.636 75.2094 252.808 74.6927C252.851 74.5205 253.066 74.0039 253.066 74.0039C253.239 73.5302 253.411 73.0997 253.583 72.6261C253.928 71.808 254.316 70.9469 254.746 70.215C254.919 69.8706 255.134 69.4831 255.392 69.1386C255.608 68.7942 255.823 68.4497 256.082 68.1053C256.512 67.5025 256.986 66.9428 257.417 66.4692C259.14 64.6178 261.078 63.4123 263.188 62.8956C268.013 61.6901 273.698 63.929 279.125 69.2247C285.328 75.2524 290.324 84.251 293.253 94.6272C295.45 102.506 295.967 110.385 295.536 117.533C295.277 121.537 293.081 128.167 292.607 129.2Z" fill="white"></path><path d="M281.02 142.849C280.676 142.849 280.159 142.849 279.944 142.849C279.857 142.849 279.771 142.849 279.685 142.849C279.599 142.849 279.556 142.849 279.47 142.849C279.125 142.806 278.867 142.806 278.565 142.763L278.005 142.677C277.79 142.634 277.532 142.591 277.316 142.548C276.972 142.462 275.938 142.203 275.766 142.16C275.507 142.074 275.249 141.988 274.99 141.902C274.473 141.73 272.191 140.739 272.191 140.739C271.76 140.524 271.372 140.309 270.985 140.094C270.511 139.835 270.08 139.577 269.692 139.319C268.486 138.544 267.366 137.683 266.247 136.735C265.859 136.391 265.471 136.046 265.084 135.702L264.438 135.099C250.439 121.537 243.031 95.058 247.855 76.1137C247.898 75.8554 247.984 75.6401 248.027 75.3818L248.07 75.2096C248.242 74.6499 248.415 74.0902 248.587 73.5304C248.673 73.2291 248.759 72.9707 248.888 72.7124C249.061 72.1957 249.276 71.7221 249.448 71.2485L249.491 71.1194C249.879 70.1291 250.353 69.1388 250.87 68.2347C251.128 67.8041 251.387 67.3305 251.645 66.9C251.903 66.4694 252.162 66.0819 252.463 65.6944C253.066 64.8764 253.669 64.1444 254.272 63.5417C256.555 61.0875 259.226 59.4514 262.198 58.7195C268.616 57.1265 275.766 59.7959 282.399 66.2111C295.837 79.2998 302.427 99.4496 300.403 121.537L315.564 137.166L309.965 141.084L298.465 129.158C296.569 135.788 292.047 140.352 285.328 142.376L284.94 142.505C284.337 142.677 283.777 142.806 283.26 142.849C283.088 142.892 282.872 142.935 282.614 142.935C282.226 142.978 281.839 143.021 281.451 143.021C281.279 142.849 281.15 142.849 281.02 142.849ZM275.163 141.127H275.206C275.464 141.213 275.679 141.299 275.938 141.385C276.11 141.428 277.101 141.687 277.445 141.773C277.661 141.816 277.876 141.859 278.091 141.902L278.651 141.988C278.91 142.031 279.211 142.074 279.513 142.074C279.556 142.074 279.642 142.074 279.728 142.074C279.814 142.074 279.857 142.074 279.944 142.074C280.288 142.074 281.15 142.074 281.279 142.074C281.666 142.074 282.054 142.031 282.442 141.988C282.657 141.988 282.829 141.945 283.002 141.902C283.519 141.816 284.035 141.73 284.595 141.557L285.026 141.428C289.678 140.051 295.708 136.606 297.862 128.124L297.991 127.522L309.965 139.878L314.401 136.778L299.585 121.494V121.322C301.652 99.3635 295.148 79.3429 281.839 66.3833C275.378 60.1403 268.443 57.557 262.284 59.0639C259.441 59.7528 256.9 61.3028 254.703 63.6708C254.1 64.2736 253.54 65.0055 252.98 65.7805C252.722 66.168 252.463 66.5555 252.205 66.943C251.947 67.3305 251.688 67.8041 251.43 68.2347C250.956 69.1388 250.482 70.086 250.094 71.0332L250.051 71.1624C249.879 71.636 249.664 72.1096 249.491 72.5832C249.405 72.8416 249.319 73.0999 249.19 73.4013C249.018 73.961 248.845 74.4777 248.673 75.0804L248.63 75.2526C248.587 75.4679 248.501 75.7263 248.458 75.9415C243.677 94.7135 250.999 120.848 264.825 134.281L265.471 134.884C265.859 135.228 266.247 135.573 266.634 135.917C267.711 136.821 268.831 137.683 269.994 138.458C270.382 138.716 270.812 138.974 271.243 139.232C271.631 139.448 272.061 139.663 272.449 139.878C272.621 140.094 274.818 140.998 275.163 141.127ZM281.063 138.63C280.848 138.63 280.374 138.63 280.159 138.63L278.651 138.458C278.479 138.414 278.307 138.414 278.135 138.371C277.876 138.328 277.101 138.113 276.885 138.027C276.756 137.984 276.67 137.941 276.498 137.898L276.11 137.726C275.464 137.467 274.258 136.951 273.913 136.821C273.569 136.649 273.267 136.477 272.966 136.305C272.535 136.089 272.191 135.874 271.846 135.659C270.812 135.013 269.822 134.238 268.831 133.42C268.486 133.119 268.142 132.817 267.797 132.473C267.668 132.344 267.539 132.258 267.453 132.128L267.151 131.87C260.949 125.842 255.909 116.758 252.98 106.295C250.051 95.833 249.621 85.4136 251.774 76.9318C251.86 76.6735 251.903 76.3721 251.99 76.1137C252.119 75.5971 252.291 75.0804 252.463 74.5638L252.722 73.8749C252.894 73.4013 253.066 72.9277 253.239 72.4971C253.583 71.636 254.014 70.818 254.402 70.043C254.617 69.6985 254.832 69.311 255.048 68.9236C255.263 68.5791 255.479 68.2347 255.737 67.8902C256.168 67.2875 256.641 66.7277 257.115 66.2111C258.881 64.3167 260.906 63.0681 263.059 62.5514C268.013 61.3028 273.784 63.5847 279.341 68.9666C285.586 74.9943 290.626 84.0789 293.554 94.5413C295.579 101.732 296.354 109.481 295.837 117.576C295.579 121.666 293.296 128.34 292.865 129.287C290.712 133.98 287.654 137.037 283.992 138.113L283.605 138.199C283.217 138.285 282.872 138.371 282.485 138.414C282.399 138.414 282.356 138.414 282.313 138.458H282.14C282.097 138.458 282.011 138.458 281.968 138.458C281.71 138.501 281.408 138.501 281.107 138.501C281.15 138.63 281.107 138.63 281.063 138.63ZM265.816 62.9819C264.954 62.9819 264.093 63.0681 263.275 63.2833C261.25 63.8 259.355 64.9625 257.675 66.7277C257.244 67.2013 256.771 67.718 256.383 68.3208C256.168 68.6652 255.909 68.9666 255.694 69.311C255.479 69.6555 255.263 70.043 255.091 70.3874C254.703 71.1194 254.316 71.9374 253.928 72.7555C253.756 73.186 253.583 73.6596 253.411 74.0902L253.153 74.779C252.98 75.2527 252.851 75.7693 252.679 76.286C252.593 76.5443 252.55 76.8457 252.463 77.104C250.353 85.4567 250.741 95.7899 253.669 106.123C256.555 116.456 261.552 125.412 267.668 131.353L267.926 131.612C268.056 131.741 268.142 131.827 268.271 131.956C268.616 132.258 268.96 132.559 269.305 132.86C270.252 133.678 271.243 134.41 272.234 135.056C272.578 135.271 272.88 135.487 273.31 135.702C273.612 135.874 273.913 136.046 274.215 136.176C274.56 136.305 275.723 136.821 276.369 137.08L276.713 137.209C276.842 137.252 276.929 137.295 277.058 137.295C277.23 137.338 278.005 137.553 278.264 137.596C278.436 137.639 278.565 137.639 278.694 137.683L280.159 137.855C280.417 137.855 281.02 137.855 281.15 137.855C281.408 137.855 281.71 137.812 281.968 137.812C282.011 137.812 282.054 137.812 282.097 137.812C282.14 137.812 282.183 137.812 282.226 137.812C282.226 137.812 282.356 137.769 282.442 137.769C282.743 137.726 283.088 137.639 283.432 137.553L283.777 137.467C287.223 136.434 290.152 133.506 292.219 128.985C292.736 127.866 294.89 121.279 295.148 117.49C295.622 109.481 294.89 101.818 292.865 94.7135C289.979 84.3803 284.983 75.4249 278.824 69.4402C274.473 65.2208 269.951 62.9819 265.816 62.9819Z" fill="black"></path><path d="M309.922 136.95C311.3 134.755 313.411 132.903 315.737 131.827C316.168 131.655 316.598 131.482 317.029 131.353C318.881 130.836 320.389 131.138 321.293 131.999L348.17 158.047C347.266 157.143 345.758 156.885 343.906 157.401C341.279 158.133 338.91 160.071 337.316 162.224C336.498 163.3 335.852 164.506 335.464 165.797C335.119 167.003 334.947 168.467 335.593 169.629C335.766 169.931 335.938 170.189 336.153 170.404C336.153 170.404 309.233 144.313 309.19 144.27C307.209 142.289 308.673 138.888 309.922 136.95Z" fill="#0047FF"></path><path d="M335.894 170.663C308.974 144.571 308.931 144.528 308.931 144.528C306.562 142.117 308.888 137.984 309.62 136.735C311.042 134.496 313.195 132.602 315.607 131.483C316.124 131.267 316.555 131.095 316.943 131.009C318.881 130.492 320.474 130.751 321.551 131.741L348.428 157.789L347.955 158.263C347.093 157.445 345.715 157.23 344.035 157.703C341.709 158.349 339.383 160.071 337.617 162.396C336.756 163.559 336.153 164.721 335.808 165.884C335.55 166.702 335.248 168.252 335.894 169.457C336.024 169.715 336.196 169.931 336.411 170.146L335.894 170.663ZM318.752 131.44C318.235 131.44 317.675 131.526 317.115 131.698C316.727 131.784 316.34 131.956 315.866 132.171C313.583 133.205 311.515 135.013 310.18 137.166C309.491 138.285 307.38 142.031 309.405 144.098C309.577 144.27 329.218 163.343 334.861 168.768C334.645 167.606 334.904 166.443 335.076 165.754C335.464 164.506 336.067 163.257 336.971 162.052C338.78 159.598 341.278 157.789 343.734 157.1C344.681 156.842 345.586 156.756 346.361 156.885L320.991 132.301C320.474 131.741 319.699 131.44 318.752 131.44Z" fill="black"></path><path d="M335.334 166.142C336.325 162.353 340.115 158.435 343.863 157.402C347.61 156.368 349.85 158.564 348.902 162.353C347.955 166.142 344.121 170.06 340.374 171.093C336.627 172.126 334.387 169.888 335.334 166.142Z" fill="black"></path><path opacity="0.5" d="M295.536 117.618C295.321 121.579 293.081 128.167 292.607 129.2C290.54 133.678 287.654 136.606 284.208 137.768C279.858 137.725 275.034 135.314 270.296 130.363C258.365 117.834 251.602 93.8088 255.264 76.8451C256.771 69.8702 261.38 64.9188 265.256 62.68C269.607 62.4647 274.474 64.7466 279.169 69.3104C285.371 75.3382 290.367 84.3367 293.296 94.7129C295.493 102.549 295.967 110.471 295.536 117.618Z" fill="white"></path><path opacity="0.25" d="M261.878 71.7744C261.878 71.7744 124.908 136.917 124.908 136.228C124.908 136.228 158.849 11.9709 160.055 12.6168L261.878 71.7744Z" fill="white"></path><path d="M191.885 92.6555L202.18 98.7262L212.517 92.7846L202.18 86.7139L191.885 92.6555Z" fill="white"></path><path d="M202.18 99.5019L190.464 92.6131L202.18 85.8965L213.852 92.7853L202.18 99.5019ZM193.264 92.6561L202.18 97.9088L211.095 92.7853L202.18 87.5326L193.264 92.6561Z" fill="black"></path><path d="M202.18 157.798L212.517 151.9V92.7852L202.18 98.7268V157.798Z" fill="black"></path><path d="M191.886 151.728L202.18 157.799V98.727L191.886 92.6562V151.728Z" fill="white"></path><path d="M202.912 159.047L191.196 152.158V91.4072L202.912 98.296V159.047ZM192.618 151.34L201.534 156.593V99.1141L192.618 93.8614V151.34Z" fill="black"></path><path d="M165.224 59.4171L175.518 65.4879L185.812 59.5893L175.518 53.5186L165.224 59.4171Z" fill="#0047FF"></path><path d="M175.518 66.3066L163.802 59.4178L175.518 52.7012L187.234 59.59L175.518 66.3066ZM166.602 59.4178L175.518 64.6705L184.434 59.5469L175.518 54.2942L166.602 59.4178Z" fill="black"></path><path d="M175.518 142.944L185.812 137.046V59.5898L175.518 65.4884V142.944Z" fill="black"></path><path d="M165.224 136.873L175.518 142.944V65.4878L165.224 59.417V136.873Z" fill="#0047FF"></path><path d="M176.207 144.193L164.491 137.304V58.2119L176.207 65.1007V144.193ZM165.913 136.486L174.829 141.739V65.8757L165.913 60.623V136.486Z" fill="black"></path><path d="M242.237 142.47L252.531 148.541L262.825 142.599L252.531 136.528L242.237 142.47Z" fill="white"></path><path d="M252.531 149.316L240.858 142.428L252.574 135.711L264.247 142.6L252.531 149.316ZM243.615 142.471L252.531 147.723L261.447 142.6L252.531 137.347L243.615 142.471Z" fill="black"></path><path d="M252.531 148.541V187.549L262.826 181.608V142.6L252.531 148.541Z" fill="black"></path><path d="M242.236 142.471V181.479L252.531 187.549V148.541L242.236 142.471Z" fill="white"></path><path d="M253.22 188.754L241.504 181.866V141.222L253.22 148.111V188.754ZM242.926 181.048L251.842 186.3V148.929L242.926 143.676V181.048Z" fill="black"></path><path d="M220.012 126.153L230.306 132.224L240.643 126.326L230.306 120.255L220.012 126.153Z" fill="#0047FF"></path><path d="M230.306 133.043L218.633 126.154L230.349 119.438L242.022 126.326L230.306 133.043ZM221.39 126.197L230.306 131.45L239.222 126.326L230.306 121.074L221.39 126.197Z" fill="black"></path><path d="M230.306 174.505L240.643 168.606V126.326L230.306 132.225V174.505Z" fill="black"></path><path d="M220.012 168.433L230.306 174.504V132.224L220.012 126.153V168.433Z" fill="#0047FF"></path><path d="M230.995 175.753L219.279 168.864V124.948L230.995 131.837V175.753ZM220.701 168.046L229.617 173.299V132.655L220.701 127.402V168.046Z" fill="black"></path></svg>